<?xml version="1.0" encoding="utf-8"?>
<!-- Generator: Adobe Illustrator 21.0.0, SVG Export Plug-In . SVG Version: 6.00 Build 0)  -->
<svg version="1.1" id="Layer_1" xmlns="http://www.w3.org/2000/svg" xmlns:xlink="http://www.w3.org/1999/xlink" x="0px" y="0px"
	 viewBox="0 0 104.4 104.5" style="enable-background:new 0 0 104.4 104.5;" xml:space="preserve">
<g>
	<path d="M47.6,93.1c10.2,0,19.6-3.4,27.1-9L91,100.3c1.3,1.3,3,1.9,4.6,1.9s3.4-0.6,4.6-1.9c2.6-2.6,2.6-6.7,0-9.3L84.1,74.8
		c5.7-7.6,9-17,9-27.1c0-25.1-20.4-45.5-45.5-45.5S2.2,22.6,2.2,47.7S22.6,93.1,47.6,93.1z M47.6,15.4C65.5,15.4,80,29.9,80,47.7
		C80,65.5,65.5,80,47.6,80c-17.8,0-32.3-14.5-32.3-32.3C15.3,29.9,29.8,15.4,47.6,15.4z"/>
	<path d="M30.2,55.2h11v11.5c0,3.6,2.9,6.5,6.5,6.5s6.5-2.9,6.5-6.5V55.2h12c3.6,0,6.5-2.9,6.5-6.5s-2.9-6.5-6.5-6.5h-12V30.7
		c0-3.6-2.9-6.5-6.5-6.5s-6.5,2.9-6.5,6.5v11.5h-11c-3.6,0-6.5,2.9-6.5,6.5S26.6,55.2,30.2,55.2z"/>
</g>
</svg>
